<?xml version="1.0" standalone="no"?>
<!DOCTYPE svg PUBLIC "-//W3C//DTD SVG 20010904//EN"
 "http://www.w3.org/TR/2001/REC-SVG-20010904/DTD/svg10.dtd">
<svg version="1.0" xmlns="http://www.w3.org/2000/svg"
 width="499.000000pt" height="558.000000pt" viewBox="0 0 499.000000 558.000000"
 preserveAspectRatio="xMidYMid meet">
<metadata>
Created by potrace 1.16, written by Peter Selinger 2001-2019
</metadata>
<g transform="translate(0.000000,558.000000) scale(0.100000,-0.100000)"
fill="#000000" stroke="none">
<path d="M1143 5550 c-240 -35 -460 -178 -569 -370 -139 -245 -86 -550 132
-762 101 -98 202 -147 334 -164 67 -8 59 2 -30 41 -152 65 -253 182 -322 373
-29 80 -36 262 -14 356 20 85 65 171 116 221 l38 37 -24 -49 c-57 -114 -53
-260 11 -388 37 -75 89 -144 100 -133 4 4 -2 32 -14 63 -17 46 -21 78 -21 188
0 131 1 134 30 180 44 70 114 135 175 163 78 36 206 51 308 36 201 -29 329
-144 467 -421 l62 -124 -26 -86 c-35 -117 -43 -158 -56 -286 -37 -367 -100
-495 -399 -810 -227 -238 -541 -555 -551 -555 -15 0 -253 -109 -265 -121 -7
-7 0 -8 20 -3 51 12 441 130 640 194 104 33 194 58 201 56 16 -6 87 -187 77
-197 -5 -5 -213 -94 -463 -199 -664 -278 -884 -372 -893 -380 -4 -4 109 -121
253 -261 144 -139 256 -255 250 -257 -19 -7 -212 18 -269 34 -82 24 -195 84
-321 170 -62 41 -114 74 -116 71 -9 -9 1113 -1094 1671 -1617 132 -124 295
-279 363 -344 67 -66 122 -114 122 -107 0 69 -24 322 -36 381 -21 105 -110
280 -244 485 -236 359 -285 502 -284 825 0 211 8 243 141 560 98 236 149 389
159 475 7 70 4 75 66 -105 22 -63 42 -139 45 -168 10 -95 27 -71 53 74 12 72
9 85 -56 196 -25 43 -44 82 -42 88 2 6 26 -7 54 -28 29 -21 81 -56 118 -77
l66 -39 0 -126 0 -126 -76 -74 c-133 -132 -187 -229 -244 -445 -56 -208 -75
-380 -60 -536 16 -159 46 -247 197 -559 92 -190 154 -343 176 -432 14 -56 36
-243 37 -313 0 -29 90 -85 135 -85 l35 0 0 143 c0 194 -17 406 -36 464 -9 26
-69 158 -134 293 -147 304 -176 386 -191 551 -14 149 -6 379 16 469 9 36 34
102 56 148 36 74 57 101 207 254 l168 171 49 -12 c35 -8 60 -8 85 -1 30 9 39
7 74 -17 46 -33 282 -283 323 -345 82 -120 107 -240 133 -613 12 -179 33 -321
68 -470 23 -96 26 -132 26 -280 1 -135 -3 -184 -17 -235 -23 -82 -96 -237
-140 -298 -53 -74 -53 -80 -3 -32 125 118 210 263 258 435 25 91 34 322 19
470 -21 211 -140 895 -172 990 -39 117 -97 215 -176 294 l-63 63 -6 92 c-2 50
-7 106 -9 124 -4 31 5 43 126 168 81 84 127 140 122 147 -4 7 -22 33 -40 58
-38 54 -63 109 -63 141 0 13 9 40 20 61 l20 37 -60 -30 c-73 -37 -288 -126
-337 -139 -27 -8 -42 -7 -64 5 -16 8 -29 13 -29 12 0 -2 9 -64 20 -138 25
-169 36 -375 22 -412 -21 -51 -128 -63 -152 -17 -13 23 10 330 35 487 8 47 13
88 11 90 -2 2 -19 -4 -37 -13 -41 -22 -81 -16 -189 26 l-85 33 60 13 c101 23
269 81 525 183 285 113 375 144 395 136 13 -4 15 -43 15 -236 0 -133 4 -230 9
-230 13 0 39 121 61 280 l19 135 -5 -165 c-2 -91 -10 -235 -17 -320 -19 -249
-17 -321 16 -418 33 -98 138 -344 192 -452 94 -189 216 -321 359 -390 113 -54
156 -64 276 -64 179 1 328 50 517 171 56 36 2 -17 -91 -89 -97 -75 -237 -148
-326 -170 -78 -19 -269 -15 -349 6 -122 33 -208 83 -301 176 -101 100 -122
138 -218 385 -38 99 -81 205 -95 235 l-26 55 5 -40 c6 -40 99 -511 174 -879
51 -253 65 -411 51 -577 -13 -153 -40 -267 -86 -367 l-36 -77 458 455 c252
250 615 611 808 802 192 191 346 350 342 354 -3 4 -22 -7 -41 -24 -135 -118
-353 -219 -511 -237 -33 -3 -73 -9 -90 -12 -25 -4 13 38 223 250 138 141 252
260 252 264 0 5 -66 33 -147 63 -373 135 -1121 444 -1152 475 -12 11 -5 40 47
192 74 218 80 245 58 278 -22 34 -58 32 -125 -5 -30 -17 -56 -30 -59 -30 -5 0
5 151 15 212 5 33 10 39 42 48 56 16 563 104 916 160 447 71 450 73 175 81
-124 4 -353 13 -509 19 l-283 11 -57 44 c-120 95 -313 278 -1012 962 -125 122
-234 239 -298 321 -117 149 -96 137 -375 217 -192 55 -364 90 -510 104 -122
12 -324 13 -403 1z m1218 -965 c60 -91 127 -165 214 -238 l59 -50 111 7 110 6
-94 -89 -94 -88 22 -74 c12 -41 29 -91 36 -112 8 -20 15 -40 15 -43 0 -2 -27
18 -60 45 -32 27 -80 64 -105 81 l-45 31 -107 -17 c-59 -9 -125 -23 -146 -30
-57 -20 -58 -17 -3 17 27 17 86 67 133 112 l84 82 -64 150 c-35 83 -81 186
-101 230 -43 92 -39 90 35 -20z m1252 -596 l92 -86 -87 -6 c-177 -14 -566
-103 -801 -184 -222 -75 -750 -292 -774 -316 -6 -7 -21 -47 -32 -90 -30 -112
-95 -237 -124 -237 -15 0 15 214 38 273 10 23 -15 22 -92 -4 -81 -27 -85 -33
-68 -100 25 -95 38 -206 30 -274 -3 -36 -10 -65 -14 -65 -5 0 -11 50 -15 111
-5 77 -16 141 -37 211 -16 55 -29 102 -27 103 20 18 853 326 1163 429 197 66
330 99 555 136 107 18 200 37 205 42 7 6 2 16 -14 29 -18 14 -26 17 -32 8 -4
-8 -11 -4 -19 12 -7 13 -31 42 -54 64 -23 22 -54 56 -69 75 -16 19 -81 91
-145 160 l-117 125 174 -165 c95 -91 214 -204 264 -251z m-1952 -1382 c-109
-248 -248 -414 -391 -468 -68 -26 -230 -36 -315 -20 -86 16 -191 69 -258 131
-91 83 -93 100 -6 52 112 -61 192 -82 314 -82 260 0 490 150 651 424 21 36 40
64 42 61 2 -2 -15 -46 -37 -98z m1880 6 c55 -85 196 -229 271 -277 104 -66
143 -76 293 -76 150 0 194 11 280 69 26 18 49 30 52 27 3 -2 -24 -34 -60 -70
-85 -86 -162 -124 -283 -136 -155 -16 -247 22 -384 160 -75 74 -94 101 -147
205 -89 176 -98 215 -22 98z m-2180 -608 c-12 -37 -26 -121 -32 -186 -26 -273
42 -472 258 -759 61 -80 62 -82 16 -34 -90 94 -226 279 -264 359 -58 120 -73
190 -73 330 0 104 4 131 28 199 27 78 74 171 83 162 2 -2 -5 -34 -16 -71z"/>
<path d="M1100 5019 c28 -22 54 -47 57 -54 3 -8 -8 -36 -24 -62 -88 -147 -104
-262 -54 -391 26 -66 78 -149 87 -140 2 2 -4 26 -12 53 -22 71 -22 277 -1 328
22 50 54 50 105 -1 78 -78 117 -208 109 -372 -3 -82 -10 -120 -31 -174 -33
-87 -33 -96 4 -61 38 36 104 164 121 235 21 88 16 254 -10 320 -46 119 -174
252 -312 325 -88 46 -103 44 -39 -6z"/>
<path d="M836 3770 c-21 -41 -66 -122 -99 -179 l-60 -104 29 -21 c16 -12 59
-47 97 -80 37 -32 70 -56 73 -54 2 3 3 119 2 259 l-3 254 -39 -75z"/>
<path d="M4582 3289 c-9 -17 -47 -83 -84 -147 -38 -64 -68 -123 -68 -131 0
-16 155 -171 170 -171 6 0 10 95 10 240 0 132 -2 240 -5 240 -3 0 -14 -14 -23
-31z"/>
<path d="M3250 2953 c-18 -32 -57 -93 -86 -136 -82 -120 -85 -140 -47 -280 9
-31 18 -55 20 -53 3 2 13 42 23 89 10 46 44 162 75 256 32 95 55 174 52 177
-2 3 -19 -21 -37 -53z"/>
<path d="M1853 2390 c-63 -130 -103 -236 -124 -330 -26 -112 -36 -332 -19
-428 6 -40 14 -72 16 -70 2 2 8 67 14 144 15 194 32 287 101 526 33 115 59
216 57 226 -3 10 -21 -17 -45 -68z"/>
<path d="M2536 2388 c-76 -108 -143 -230 -175 -322 -18 -50 -30 -96 -29 -104
2 -9 37 20 88 72 47 47 88 86 92 86 12 0 -6 -47 -80 -205 -174 -373 -172 -367
-172 -486 0 -154 12 -202 111 -430 48 -113 96 -234 105 -270 12 -49 17 -133
21 -361 l5 -298 128 0 128 0 105 102 c133 129 146 156 147 293 0 201 -37 274
-296 590 -79 97 -139 214 -160 315 -24 114 -10 476 22 583 3 10 7 17 9 15 2
-2 15 -89 30 -193 28 -202 52 -313 86 -392 32 -75 164 -241 144 -180 -2 6 -9
89 -15 182 -19 293 -24 319 -99 524 -38 102 -72 195 -76 206 -4 11 34 -23 84
-75 88 -92 90 -94 85 -60 -12 76 -47 169 -94 245 -27 44 -69 112 -92 152 -24
40 -46 72 -50 73 -4 0 -27 -28 -52 -62z"/>
<path d="M2991 1543 c-60 -265 -54 -400 25 -576 80 -181 97 -243 98 -359 l1
-107 19 52 c15 40 20 78 20 167 -1 105 -4 125 -39 235 -70 221 -75 246 -85
469 -6 115 -12 211 -13 213 -2 2 -14 -41 -26 -94z"/>
</g>
</svg>
